<?xml version="1.0" standalone="no"?>
<!DOCTYPE svg PUBLIC "-//W3C//DTD SVG 20010904//EN"
 "http://www.w3.org/TR/2001/REC-SVG-20010904/DTD/svg10.dtd">
<svg version="1.0" xmlns="http://www.w3.org/2000/svg"
 width="928.000000pt" height="928.000000pt" viewBox="0 0 928.000000 928.000000"
 preserveAspectRatio="xMidYMid meet">
<metadata>
Created by potrace 1.14, written by Peter Selinger 2001-2017
</metadata>
<g transform="translate(0.000000,928.000000) scale(0.100000,-0.100000)"
fill="#000000" stroke="none">
<path d="M5178 8775 c-2 -2 -50 -6 -108 -9 -210 -10 -451 -33 -550 -50 -95
-17 -211 -66 -290 -123 -87 -63 -238 -246 -230 -279 1 -4 -3 -10 -8 -13 -11
-7 -50 -110 -57 -151 -3 -16 -8 -45 -12 -62 -7 -38 -8 -199 0 -243 20 -113 63
-221 127 -315 42 -62 134 -160 150 -160 6 0 10 -4 10 -8 0 -23 204 -122 283
-137 15 -3 39 -8 55 -11 41 -8 129 -8 212 0 41 5 95 10 120 12 25 1 45 4 45 4
0 2 27 4 215 16 269 17 696 7 900 -21 25 -3 64 -8 86 -11 23 -2 53 -7 65 -10
13 -3 38 -7 54 -10 17 -2 50 -8 75 -14 25 -6 56 -13 70 -16 59 -12 238 -64
280 -81 8 -4 17 -7 20 -8 16 -5 51 -20 97 -40 28 -13 54 -21 57 -17 3 3 6 0 6
-6 0 -7 8 -12 19 -12 10 0 24 -7 31 -15 7 -8 16 -13 20 -10 4 3 13 -2 20 -10
7 -8 16 -15 21 -15 10 0 141 -79 149 -89 3 -4 25 -21 50 -38 37 -25 132 -107
162 -140 57 -62 86 -94 98 -113 8 -12 25 -34 37 -48 13 -15 23 -30 23 -34 0
-4 6 -13 13 -20 46 -51 180 -337 202 -435 2 -10 11 -40 20 -68 8 -27 15 -50
14 -50 -1 0 4 -18 9 -40 12 -46 23 -108 25 -147 1 -16 4 -28 7 -28 3 0 5 -12
6 -27 0 -16 4 -59 7 -98 4 -38 10 -128 13 -200 3 -71 6 -132 6 -135 0 -3 0 -9
-1 -15 -2 -8 -1 -283 0 -320 1 -5 0 -37 -1 -70 -1 -33 -1 -64 0 -70 1 -5 2
-14 1 -20 -2 -8 -1 -283 0 -320 1 -5 0 -37 -1 -70 -1 -33 -1 -64 0 -70 1 -5 2
-14 0 -20 -5 -27 -1 -366 5 -375 3 -5 3 -10 -2 -10 -9 0 -8 -282 1 -306 3 -8
2 -14 -2 -14 -8 0 -6 -284 2 -306 3 -8 2 -14 -2 -14 -8 0 -6 -284 2 -306 3 -8
2 -14 -2 -14 -8 0 -6 -284 2 -306 3 -8 2 -14 -2 -14 -8 0 -6 -284 2 -306 3 -8
2 -14 -2 -14 -8 0 -6 -284 2 -306 3 -8 2 -14 -2 -14 -8 0 -6 -284 2 -306 3 -8
2 -14 -2 -14 -4 0 -6 -19 -4 -42 1 -24 3 -47 3 -53 1 -5 0 -37 -1 -70 -1 -33
-1 -64 0 -70 1 -5 1 -14 0 -20 -4 -18 1 -169 6 -177 3 -5 -1 -8 -8 -8 -8 0 -9
-3 -3 -8 6 -4 11 -16 10 -27 0 -11 3 -36 8 -55 4 -19 10 -46 13 -60 9 -45 47
-134 88 -202 35 -59 155 -198 171 -198 3 0 16 -9 27 -20 28 -25 193 -107 233
-114 17 -3 50 -10 75 -15 25 -6 90 -9 145 -7 153 5 267 43 398 134 49 33 167
149 167 163 0 4 6 14 14 22 18 17 79 140 95 188 12 38 18 61 29 119 10 48 9
4417 0 4505 -5 39 -10 95 -13 125 -3 30 -7 69 -9 85 -4 26 -14 93 -32 220 -2
16 -7 39 -11 50 -3 11 -7 29 -9 40 -4 30 -31 146 -43 183 -5 18 -10 36 -11 40
0 4 -6 25 -12 47 -6 22 -12 45 -14 52 -3 18 -24 85 -33 108 -5 11 -23 61 -41
110 -43 119 -125 300 -185 411 -27 49 -48 92 -47 97 1 4 -3 7 -8 7 -6 0 -10 5
-10 10 0 6 -5 16 -11 23 -5 7 -29 41 -52 77 -23 36 -47 71 -54 78 -7 7 -13 17
-13 22 0 5 -6 15 -13 22 -6 7 -30 37 -52 66 -21 28 -43 52 -49 52 -5 0 -7 3
-3 6 3 4 1 12 -6 19 -7 7 -46 50 -87 96 -124 136 -196 205 -330 315 -47 38
-86 72 -88 77 -2 4 -10 7 -18 7 -8 0 -14 5 -14 10 0 6 -6 10 -14 10 -8 0 -16
4 -18 8 -4 12 -155 112 -168 112 -5 0 -10 5 -10 10 0 6 -6 10 -14 10 -8 0 -16
3 -18 8 -1 4 -19 16 -38 26 -81 44 -298 153 -335 168 -72 30 -225 89 -232 89
-1 0 -26 9 -55 20 -55 20 -236 75 -298 89 -115 27 -179 41 -205 45 -16 3 -45
9 -63 14 -18 5 -35 10 -37 10 -10 0 -100 13 -125 18 -14 2 -38 6 -55 8 -16 1
-48 5 -70 8 -69 10 -138 18 -200 23 -33 3 -80 8 -105 10 -59 5 -757 14 -762 9z"/>
<path d="M3047 7374 c-1 -1 -22 -5 -46 -9 -139 -21 -313 -118 -409 -230 -67
-77 -77 -91 -103 -142 -13 -27 -26 -50 -29 -53 -6 -6 -90 -177 -91 -185 0 -2
-13 -33 -28 -67 -29 -65 -42 -96 -47 -113 -2 -5 -22 -62 -44 -125 -23 -63 -48
-140 -57 -170 -30 -108 -71 -285 -67 -289 2 -2 0 -9 -5 -15 -5 -6 -11 -31 -14
-56 -4 -25 -8 -54 -11 -65 -12 -60 -31 -224 -41 -360 -2 -27 -4 -150 -5 -273
-1 -162 -4 -224 -13 -227 -7 -3 -329 -6 -717 -8 -388 -2 -718 -6 -734 -11
-127 -32 -273 -114 -361 -201 -51 -52 -129 -160 -140 -197 -4 -13 -11 -25 -15
-28 -6 -5 -43 -116 -57 -170 -3 -14 -7 -76 -8 -138 -2 -110 13 -208 44 -287 7
-16 12 -31 11 -33 0 -1 11 -23 26 -49 125 -225 317 -363 554 -398 25 -4 352
-7 727 -7 l681 0 -3 -571 c-2 -315 -4 -637 -4 -717 0 -80 -1 -158 -1 -175 -5
-109 -2 -838 3 -870 39 -241 181 -444 387 -557 53 -29 118 -55 157 -63 15 -4
39 -9 53 -12 42 -10 240 -11 268 -2 15 4 51 16 81 24 63 19 145 55 149 67 2 4
8 8 14 8 29 0 228 188 228 216 0 8 4 14 9 14 5 0 13 10 17 23 4 12 10 24 13
27 11 8 61 130 61 149 0 10 3 21 7 25 4 3 8 12 9 19 1 7 5 32 9 57 4 25 8 164
9 310 1 146 5 271 10 278 4 6 4 12 -1 12 -10 0 -9 82 0 97 4 7 3 14 -1 17 -7
4 -9 51 -2 51 1 0 2 15 3 33 1 17 -2 32 -6 32 -5 0 -5 4 -2 10 5 8 7 76 5 200
0 19 8 1165 9 1241 l1 57 669 0 c721 0 734 1 854 43 221 79 400 274 467 510
32 114 34 329 3 409 -3 8 -8 23 -9 33 -14 68 -109 228 -181 302 -99 102 -250
187 -373 209 -14 3 -25 5 -25 6 0 6 -146 8 -743 9 l-664 1 5 238 c5 244 6 261
32 427 7 45 53 220 67 252 6 15 13 36 15 46 1 10 12 38 23 62 11 24 20 46 20
49 0 8 80 172 88 180 4 4 7 11 7 14 1 4 6 17 13 30 14 24 48 127 59 176 4 17
7 90 7 161 -1 150 -14 208 -75 332 -105 216 -280 351 -530 409 -24 6 -207 13
-212 8z"/>
</g>
</svg>
