<?xml version="1.0" encoding="UTF-8"?>
<svg id="Calque_2" data-name="Calque 2" xmlns="http://www.w3.org/2000/svg" viewBox="0 0 463.6 414.29">
  <defs>
    <style>
      .cls-1 {
        fill: #03adcd;
      }

      .cls-2 {
        fill: #28316c;
      }
    </style>
  </defs>
  <g id="Calque_1-2" data-name="Calque 1">
    <g>
      <path class="cls-1" d="m277.21,227.47c0,20.98-16.56,38.02-37.01,38.02h-63.91l-.7,110.78c0,20.98-16.56,38.02-37.01,38.02s-36.95-17.04-36.95-38.02l.7-110.78H37.01c-20.45,0-37.01-17.04-37.01-38.02s16.56-38.08,37.01-38.08h65.31v-13.69c0-30.19,7.55-59.96,21.85-86.2,9.99-18.29,32.54-24.81,50.32-14.53,17.84,10.28,24.17,33.48,14.18,51.77-8.13,14.89-12.38,31.8-12.38,48.96v13.69h63.91c20.45,0,37.01,17.04,37.01,38.08Z"/>
      <path class="cls-2" d="m426.62,414.29c-20.42,0-36.98-17.03-36.98-38.04v-200.56c0-32.58-8.94-57.31-26.57-73.52-24.28-22.32-68-30.55-126.45-23.77-20.29,2.33-38.6-12.67-40.88-33.54S208.05,5.14,228.35,2.79c81.1-9.38,143.01,4.94,184.01,42.64,33.52,30.82,51.24,75.87,51.24,130.26v200.56c0,21.01-16.55,38.04-36.98,38.04Z"/>
    </g>
  </g>
</svg>